<?xml version="1.0" standalone="no"?>
<!DOCTYPE svg PUBLIC "-//W3C//DTD SVG 20010904//EN"
 "http://www.w3.org/TR/2001/REC-SVG-20010904/DTD/svg10.dtd">
<svg version="1.0" xmlns="http://www.w3.org/2000/svg"
 width="512.000000pt" height="512.000000pt" viewBox="0 0 512.000000 512.000000"
 preserveAspectRatio="xMidYMid meet">
<metadata>
Created by potrace 1.14, written by Peter Selinger 2001-2017
</metadata>
<g transform="translate(0.000000,512.000000) scale(0.100000,-0.100000)"
fill="#000000" stroke="none">
<path d="M4857 4194 c-1 -1 -49 -5 -107 -8 -58 -3 -118 -9 -135 -11 -16 -3
-43 -7 -60 -9 -73 -10 -123 -18 -155 -26 -19 -5 -51 -12 -70 -15 -161 -27
-439 -123 -648 -226 -495 -243 -885 -615 -1154 -1104 -59 -108 -118 -230 -150
-310 -11 -27 -25 -61 -31 -75 -6 -14 -11 -27 -11 -30 -1 -3 -18 -52 -38 -110
-35 -101 -66 -199 -72 -230 -2 -8 -6 -22 -9 -30 -6 -16 -43 -176 -51 -225 -3
-16 -8 -41 -11 -55 -3 -14 -10 -54 -16 -89 -5 -35 -11 -66 -13 -70 -2 -3 -7
-33 -10 -65 -4 -33 -9 -74 -11 -93 -3 -18 -7 -49 -10 -67 -3 -19 -7 -70 -10
-113 l-4 -78 16 35 c61 128 177 356 198 390 14 22 25 44 25 50 0 5 5 10 10 10
6 0 10 4 10 9 0 8 103 182 122 206 5 6 45 64 90 130 45 66 85 124 90 130 5 5
38 51 75 100 37 50 72 95 77 101 6 6 25 29 41 50 38 49 163 197 208 248 30 33
36 36 39 20 2 -10 1 -36 -3 -56 -4 -24 -2 -38 4 -38 8 0 8 -3 0 -11 -6 -6 -8
-23 -3 -44 4 -19 5 -37 2 -40 -7 -6 -5 -136 2 -143 3 -2 2 -12 -3 -21 -5 -9
-5 -25 -1 -36 4 -11 4 -29 0 -40 -4 -11 -4 -29 0 -40 4 -11 4 -34 -1 -52 -4
-18 -3 -35 2 -38 4 -3 5 -16 0 -28 -5 -12 -5 -31 -1 -41 4 -11 4 -34 0 -50 -3
-17 -3 -51 1 -76 4 -25 3 -47 -2 -48 -5 -2 -7 -8 -4 -13 3 -4 5 -34 5 -66 0
-32 0 -76 1 -98 1 -22 1 -47 0 -55 -1 -17 -1 -26 2 -158 1 -50 -1 -92 -4 -92
-3 0 -3 -19 0 -42 4 -24 4 -56 1 -73 -3 -16 -3 -46 -2 -67 l4 -37 403 -1 c377
0 403 1 407 17 2 10 3 529 3 1153 l-1 1135 36 35 c67 65 425 335 591 446 57
38 106 72 109 75 5 6 261 168 295 187 l20 11 -20 2 c-11 0 -30 2 -43 3 -12 2
-23 2 -25 0z"/>
<path d="M371 3802 c0 -4 51 -45 114 -91 62 -46 124 -93 138 -105 14 -11 35
-28 47 -36 12 -8 28 -20 34 -25 6 -6 34 -28 61 -50 28 -21 55 -44 60 -50 7 -8
10 -409 9 -1163 l-1 -1151 408 -1 408 0 0 647 c0 357 0 707 1 780 l0 131 58
-61 c57 -61 104 -112 157 -172 66 -75 217 -268 270 -345 76 -111 78 -113 71
-65 -36 241 -129 522 -252 765 -113 222 -207 353 -364 511 -91 92 -256 229
-275 229 -4 0 -19 8 -33 18 -131 91 -394 186 -602 218 -19 2 -46 7 -60 10 -46
9 -250 14 -249 6z"/>
</g>
</svg>
