<svg xmlns="http://www.w3.org/2000/svg" xmlns:xlink="http://www.w3.org/1999/xlink" viewBox="0 0 172.74 147.95"><defs><style>.cls-1{fill:none;}.cls-2{clip-path:url(#clip-path);}.cls-3{fill:#ec2029;}</style><clipPath id="clip-path" transform="translate(0 0)"><rect class="cls-1" width="172.74" height="147.95"/></clipPath></defs><g id="Layer_2" data-name="Layer 2"><g id="Layer_1-2" data-name="Layer 1"><g class="cls-2"><path class="cls-3" d="M58,3.36C59.45,2,65-3.39,70.55,3.19c-5-1.89-9.38,1.93-12.57.17" transform="translate(0 0)"/><path class="cls-3" d="M61.24,4.69c1.78.16,8-3.91,8.85,2.09-2.83-1-5.49.84-8.85-2.09" transform="translate(0 0)"/><path class="cls-3" d="M71.11,4.05c1.79,1.92,3.26,8.14-2,11.05-.84.44-.64-2.8,1-5.17s1-5.88,1-5.88" transform="translate(0 0)"/><path class="cls-3" d="M67.4,15.65c-1.49-4.18-1.73-6.44-.49-8.57.42-.68,3.62-.06,2,3.66s-1.53,4.91-1.53,4.91" transform="translate(0 0)"/><path class="cls-3" d="M65.91,15.55c-2.44-2.24-3.81-3.5-3-8.51a9,9,0,0,1,3,8.51" transform="translate(0 0)"/><path class="cls-3" d="M57,11.86c1.06,2.41,4.5,5.61,8.44,4.9A12.25,12.25,0,0,0,57,11.86" transform="translate(0 0)"/><path class="cls-3" d="M58,11.1C55.26,8.77,57,4.78,57.73,4,59.21,6,59,9.77,58,11.1" transform="translate(0 0)"/><path class="cls-3" d="M61,10.31C58.84,8.54,58.68,7,59.33,4.5c1.79.08,3.08,3.43,1.69,5.81" transform="translate(0 0)"/><path class="cls-3" d="M58.28,11.23c1.5-1.65,3.27-.89,4.28,1.39-1.18-.25-4.28-1.39-4.28-1.39" transform="translate(0 0)"/><path class="cls-3" d="M20.49,49.56c-1.81.79-9,3.67-5.31,11.4.32-5.34,5.61-7.77,5.31-11.4" transform="translate(0 0)"/><path class="cls-3" d="M20.37,53.07c-.59,1.7-6.85,5.69-1.72,8.94.25-3,3-4.66,1.72-8.94" transform="translate(0 0)"/><path class="cls-3" d="M15.74,61.82c1,2.42,6.08,6.31,10.89,2.71.75-.59-2.29-1.73-5.13-1.18s-5.76-1.53-5.76-1.53" transform="translate(0 0)"/><path class="cls-3" d="M27.84,63.19c-3.2-3.07-5.17-4.22-7.62-4-.78.1-1.53,3.27,2.52,3.34s5.1.62,5.1.62" transform="translate(0 0)"/><path class="cls-3" d="M28.36,61.78c-1-3.13-1.63-4.9-6.54-6.21a9,9,0,0,0,6.54,6.21" transform="translate(0 0)"/><path class="cls-3" d="M28.66,52.1c1.77,2,3.27,6.42,1,9.72a12.33,12.33,0,0,1-1-9.72" transform="translate(0 0)"/><path class="cls-3" d="M27.55,52.73c-1-3.44-5.37-3.47-6.38-3.14,1.18,2.16,4.74,3.53,6.38,3.14" transform="translate(0 0)"/><path class="cls-3" d="M25.58,55.18c-.71-2.72-2.09-3.5-4.61-3.93-.65,1.67,1.87,4.22,4.61,3.93" transform="translate(0 0)"/><path class="cls-3" d="M27.55,53.05c-2.13.69-2.16,2.62-.5,4.48.27-1.18.5-4.48.5-4.48" transform="translate(0 0)"/><path class="cls-3" d="M45.77,52.19c4-3.83,16.6-.17,6,10.55.66-6.44-.35-8.64-6-10.55" transform="translate(0 0)"/><path class="cls-3" d="M46.06,53.77c2.76,1.36,7.94,4.26.76,14,0-4.81,1.16-10.89-.76-14" transform="translate(0 0)"/><path class="cls-3" d="M45.86,54.2c-1.69,1-5.29,7.13-4.76,15.44,2.71-4.45,6.31-9.89,4.76-15.44" transform="translate(0 0)"/><path class="cls-3" d="M40.86,59.55C38.67,61,37,67.42,39.21,71.64c.47-3.3,1.65-12.09,1.65-12.09" transform="translate(0 0)"/><path class="cls-3" d="M45.93,63.82c-1.35,2.49-3,6.68-7.18,10,3.68.8,8.79-3.59,7.18-10" transform="translate(0 0)"/><path class="cls-3" d="M36.09,68.43c1.52,1.69,4.14,4.6-1,6.76a60.71,60.71,0,0,1,1-6.76" transform="translate(0 0)"/><path class="cls-3" d="M32.5,68.05c3.12,1.86,4.69,4.35.25,8.79-.68-3-.25-8.79-.25-8.79" transform="translate(0 0)"/><path class="cls-3" d="M29.71,68.56c-.85,3-2.88,9,.33,16.73,1.9-8.87,3-12.81-.33-16.73" transform="translate(0 0)"/><path class="cls-3" d="M37.44,63c-2.11,2.11-5.62,2-6.13,3.89,3.26,1.27,6.17,2.36,6.13-3.89" transform="translate(0 0)"/><path class="cls-3" d="M30.47,66.57c-3.68.93-15.3,2.58-16.36,9.21,3.85-2.49,10.65-5.2,13.06-6.42a8.16,8.16,0,0,0,3.3-2.79" transform="translate(0 0)"/><path class="cls-3" d="M26.62,70.71c-.93,1.52-2.57,6.89.42,10.23.68-5.2,1.65-8.46-.42-10.23" transform="translate(0 0)"/><path class="cls-3" d="M25.44,71.6c-2,.46-4.9,3.34-5.41,7.56a31.42,31.42,0,0,1-.51,3.25c1.69,0,3.38-1.81,4.1-6.29a11,11,0,0,1,1.82-4.52" transform="translate(0 0)"/><path class="cls-3" d="M21.17,72.4A7.79,7.79,0,0,1,16,75.57a6.77,6.77,0,0,0-5.32,4.35c4,.25,9.72-2.15,10.52-7.52" transform="translate(0 0)"/><path class="cls-3" d="M19.1,78.27c.38,2.16-2.75,8.2-9.51,3,4.06,0,8.28-1.49,9.51-3" transform="translate(0 0)"/><path class="cls-3" d="M11.24,87c.55-3-.93-5.32-4.06-3.72.26.76,4.06,3.72,4.06,3.72" transform="translate(0 0)"/><path class="cls-3" d="M21.59,83s-4.73-.8-5.87,2.71A10.44,10.44,0,0,1,13,89.56c3.93.21,6-2.66,8.6-6.6" transform="translate(0 0)"/><path class="cls-3" d="M11.85,83a8.12,8.12,0,0,1-.14,5.57c1.88,0,4.58-3.78.14-5.57" transform="translate(0 0)"/><path class="cls-3" d="M13.12,91.18C8.6,85.35,7.18,84,5.83,84.93,4.67,86.35,6,89,13.12,91.18" transform="translate(0 0)"/><path class="cls-3" d="M9.06,90.38c-2.67-2.81-5.7-3.84-6.65,2.07a5.88,5.88,0,0,1,6.65-2.07" transform="translate(0 0)"/><path class="cls-3" d="M13.78,91.87C10.34,90.6,3.49,89.53.56,97.62a25.34,25.34,0,0,1,13.22-5.75" transform="translate(0 0)"/><path class="cls-3" d="M10,93.7c-2.65.38-9.13,2.36-10,10.19,5.16-3.32,9.77-8.25,10-10.19" transform="translate(0 0)"/><path class="cls-3" d="M13.73,92.51s.85,11.08-7,8.25c1.48-2.67,4.05-7.36,7-8.25" transform="translate(0 0)"/><path class="cls-3" d="M10.27,104.14c-.64-2.34-2.71-2.88-6.34-2.33.17,2.37,3.85,3.47,6.34,2.33" transform="translate(0 0)"/><path class="cls-3" d="M10,105.16c-1.23,3.75-8.23,3.67-9.83-1,2.24-.36,6,1.41,9.83,1" transform="translate(0 0)"/><path class="cls-3" d="M20.24,85.64s4.07,7.61,2.35,16c-5-3-3.38-13-2.35-16" transform="translate(0 0)"/><path class="cls-3" d="M17.66,106.32c-2.09-1-1.2,8.92,5.53,12.27-4.66-6.77-2.55-10.84-5.53-12.27" transform="translate(0 0)"/><path class="cls-3" d="M23,119.39s-.2,6.73-7.84,5.1c-1.88-.52-.32-2.07,2.74-2.63a11,11,0,0,0,5.1-2.47" transform="translate(0 0)"/><path class="cls-3" d="M19.56,100.38s5.13,2.23,1,8.45c-1.24-1.85-1.69-5.36-1-8.45" transform="translate(0 0)"/><path class="cls-3" d="M27.24,81.13S32,87.84,25.61,95.28c-.34-2.2.67-5.24.39-8.29s0-4.11,1.24-5.86" transform="translate(0 0)"/><path class="cls-3" d="M32.59,84.46s-5.8,4.79.34,9.46c-.17-4.33-.34-9.46-.34-9.46" transform="translate(0 0)"/><path class="cls-3" d="M21.67,119c-1.88-1.45-6.11-2.42-9.48,3,1.7-.11,7.56-.47,9.48-3" transform="translate(0 0)"/><path class="cls-3" d="M13.6,122.56c0,.83-1.59,4-6.61,2.13a6.86,6.86,0,0,1,6.61-2.13" transform="translate(0 0)"/><path class="cls-3" d="M6.41,125.27c.4,2,1.08,2.89,3.76,3.18s4.19,3.22,4.19,3.22c.22-3.11-.72-4.23-3.72-4.74a11.32,11.32,0,0,1-4.23-1.66" transform="translate(0 0)"/><path class="cls-3" d="M13.82,132.43c-3.4.58-7.85.4-8.14-5.57,1.67,2.06,2.9,2.42,4,2.57a4.91,4.91,0,0,1,4.12,3" transform="translate(0 0)"/><path class="cls-3" d="M24,78.61s-1.18,3.1,1.13,5.15A3.75,3.75,0,0,0,24,78.61" transform="translate(0 0)"/><path class="cls-3" d="M22.77,82.35s-2.11,5.58,1.95,7.55c.53-1.69.9-5.43-1.95-7.55" transform="translate(0 0)"/><path class="cls-3" d="M23.53,90.19s-1.09,3.6.82,5c.62-1.86,1.1-3.58-.82-5" transform="translate(0 0)"/><path class="cls-3" d="M28.63,93.68s.23,4.06-3.15,3.46a6.12,6.12,0,0,1,3.15-3.46" transform="translate(0 0)"/><path class="cls-3" d="M28.52,91.79s1.83,6.76,5.47,8.54c-.12-3.55-1.72-7-5.47-8.54" transform="translate(0 0)"/><path class="cls-3" d="M32.63,100.19c2.58.9-8.79,2.62-9.12-3.89,2.76,3.1,4.7,2.34,9.12,3.89" transform="translate(0 0)"/><path class="cls-3" d="M28.72,101.82c-2.68-.4-4.26-.62-5-2.68-.37,2.71.64,4.14,2.9,4s3.66-1.12,2.14-1.35" transform="translate(0 0)"/><path class="cls-3" d="M24.07,109.17c.19-2.1-1.72-3.12-2.28.14s.25,6.29,2,7.66c-.06-3,.2-6.56.31-7.8" transform="translate(0 0)"/><path class="cls-3" d="M28,110.21c-.36-3.14-2.7-3.54-2.62.43s-.14,6.53-2.31,9c1.58-.23,5.66-3,4.93-9.39" transform="translate(0 0)"/><path class="cls-3" d="M22.94,102.19c-.2,1.74-.28,4,1.66,5.43.85.65,1.41-.93.68-2.28a21.51,21.51,0,0,0-2.34-3.15" transform="translate(0 0)"/><path class="cls-3" d="M25.36,103.34c.4,1.27.2,2.85,2.85,3,1.41.16,1.75-2.2-.06-2.37a8.86,8.86,0,0,1-2.79-.65" transform="translate(0 0)"/><path class="cls-3" d="M29.37,95.54A4.19,4.19,0,0,0,31.57,99c-3.48-.18-3.07-2-2.2-3.49" transform="translate(0 0)"/><path class="cls-3" d="M34.34,90.54a34.86,34.86,0,0,1-.05,8.17c3.67-.23,4-6.54.05-8.17" transform="translate(0 0)"/><path class="cls-3" d="M35.92,98.9c3.69-1.84,2.85-3.36,9.95-3C42,99,40,101.7,35.92,98.9" transform="translate(0 0)"/><path class="cls-3" d="M36.26,90.33c1.54,2.07,3.32,4.4,1.83,6.42,2.62-1.31,3.51-4.72-1.83-6.42" transform="translate(0 0)"/><path class="cls-3" d="M36.86,89.94c3.06-1,7.33-.81,8,.6a2.13,2.13,0,0,1-3.43,2,26.41,26.41,0,0,0-4.56-2.56" transform="translate(0 0)"/><path class="cls-3" d="M45.71,91a3.68,3.68,0,0,1,2.72,3.3c-1.88.13-4.58-.1-7,1,2.82-1.86,4.19-2.47,4.29-4.25" transform="translate(0 0)"/><path class="cls-3" d="M44.85,97.53s-7.23,3-1,7.65c-.37-3.53-.58-5,1-7.65" transform="translate(0 0)"/><path class="cls-3" d="M49.14,94.6c-6,5.71-5.5,11.79-2.07,14.46A28.66,28.66,0,0,1,49.14,94.6" transform="translate(0 0)"/><path class="cls-3" d="M48.44,99.34c-1,3.09-2.57,10.48,3.11,13.57-.21-7.18-1.18-11.39-3.11-13.57" transform="translate(0 0)"/><path class="cls-3" d="M49.46,95.05c2.75,2.49,7.93,6.68,2.9,11.13-1-4.3-3.56-5.58-2.9-11.13" transform="translate(0 0)"/><path class="cls-3" d="M57.13,104.48c-1.78-.06-4.32.88-5.31,4.55,1.8.19,4.66-2,5.31-4.55" transform="translate(0 0)"/><path class="cls-3" d="M58.07,105.65c.92,2.73,1,8.18-6.15,7.47.29-1.84.92-2.83,3.14-4a6.8,6.8,0,0,0,3-3.46" transform="translate(0 0)"/><path class="cls-3" d="M19.51,116.94c-5.54-2.71-8.24-.64-9.76,4.9,2.37-2.66,4.22-5.87,9.76-4.9" transform="translate(0 0)"/><path class="cls-3" d="M17.82,114.78s-3-.33-4.27.34a11.91,11.91,0,0,1,3.17-3.88Z" transform="translate(0 0)"/><path class="cls-3" d="M54,42.65c-3.49,4.3,1.17,16.56,11,5.18-6.37,1.18-8.64.34-11-5.18" transform="translate(0 0)"/><path class="cls-3" d="M55.56,42.81c1.58,2.64,4.89,7.57,14-.37-4.78.42-10.76,2-14,.37" transform="translate(0 0)"/><path class="cls-3" d="M56,42.58c.85-1.77,6.68-5.85,15-6-4.23,3.06-9.35,7.09-15,6" transform="translate(0 0)"/><path class="cls-3" d="M60.91,37.16c1.26-2.3,7.53-4.5,11.92-2.61-3.25.73-11.92,2.61-11.92,2.61" transform="translate(0 0)"/><path class="cls-3" d="M65.57,41.88C68,40.33,72,38.31,75,33.91c1.1,3.6-2.87,9.05-9.41,8" transform="translate(0 0)"/><path class="cls-3" d="M99.94,11.26C98.7,4,98.65,2,100.26,1.65c1.83.11,2.89,2.92-.32,9.61" transform="translate(0 0)"/><path class="cls-3" d="M102.09,7.72c-.27-3.87,1-6.8,6-3.5a5.88,5.88,0,0,0-6,3.5" transform="translate(0 0)"/><path class="cls-3" d="M100,12.2c1.39-3.39,5.23-9.15,13.17-5.84A25.39,25.39,0,0,0,100,12.2" transform="translate(0 0)"/><path class="cls-3" d="M103.9,10.66c2.07-1.7,7.92-5.12,14.28-.47-5.94,1.55-12.69,1.62-14.28.47" transform="translate(0 0)"/><path class="cls-3" d="M100.51,12.61s7.58,8.11,10.81.4c-3-.71-8.16-2-10.81-.4" transform="translate(0 0)"/><path class="cls-3" d="M111.41,17.92c-1.29-2.05-.29-3.94,2.57-6.24,1.63,1.72,0,5.17-2.57,6.24" transform="translate(0 0)"/><path class="cls-3" d="M112.35,18.41c3.59,1.62,8.28-3.59,5.87-7.95-1.77,1.4-3,5.36-5.87,8" transform="translate(0 0)"/><path class="cls-3" d="M112.41,43.25c1.16-2,6,6.7,2.35,13.26,0-8.22-4-10.39-2.35-13.26" transform="translate(0 0)"/><path class="cls-3" d="M115.34,57.08s4,5.45,9.36-.21c1.25-1.49-.91-1.9-3.76-.63a11,11,0,0,1-5.6.84" transform="translate(0 0)"/><path class="cls-3" d="M116.24,56c.73-2.25,3.68-5.44,9.51-2.86-1.46.87-6.5,3.87-9.51,2.86" transform="translate(0 0)"/><path class="cls-3" d="M124.91,54.38c.44.71,3.6,2.45,6.67-2a6.87,6.87,0,0,0-6.67,2" transform="translate(0 0)"/><path class="cls-3" d="M132.39,52.56c.79,1.87.73,3-1.32,4.75s-1.64,5-1.64,5c-1.94-2.44-1.79-3.9.4-6a11.37,11.37,0,0,0,2.56-3.76" transform="translate(0 0)"/><path class="cls-3" d="M130.3,62.65c3.13-1.44,6.7-4.09,3.58-9.18-.21,2.64-1,3.63-1.87,4.38a5,5,0,0,0-1.71,4.8" transform="translate(0 0)"/><path class="cls-3" d="M108.72,49.23c-1.34-1.64-.34-3.56,2-1.17s3.33,5.33,2.69,7.44a77.74,77.74,0,0,0-4.66-6.27" transform="translate(0 0)"/><path class="cls-3" d="M106,52.33c-1.47-2.8.24-4.46,2.4-1.13s3.81,5.32,7,6.09C114,58,109,58,106,52.33" transform="translate(0 0)"/><path class="cls-3" d="M116.87,53.07c3-5.35,6.45-5.17,10.83-1.46-3.46-.86-6.81-2.47-10.83,1.46" transform="translate(0 0)"/><path class="cls-3" d="M1.09,139c2.82-2.71,10.45-2.78,12.22,3.62.33,1.19-.32,2.17-2.56.25A20,20,0,0,0,1.09,139" transform="translate(0 0)"/><path class="cls-3" d="M9.41,143.82c-3,.61-7.77,1.12-9.22-2.79-.18-.9,6.11-.87,9.22,2.79" transform="translate(0 0)"/><path class="cls-3" d="M13.39,145.15C11,144.32,3.55,143.89,1,146.93c2.28,1.08,10.27,2.2,12.37-1.78" transform="translate(0 0)"/><path class="cls-3" d="M10.46,135.86s3.29-.51,3.26,3.73c-2-.91-3.36-2.08-3.26-3.73" transform="translate(0 0)"/><path class="cls-3" d="M17.75,133.57c1.75-2.45,9.48-3.13,12.24-.8-2.12,1.88-8.57,3.89-12.24.8" transform="translate(0 0)"/><path class="cls-3" d="M30.86,138.82s-7.83.26-10-3.43c4.37-.34,7.77-1.48,10,3.43" transform="translate(0 0)"/><path class="cls-3" d="M29,140.77c-1.44,2.55-9.71,4.74-12-5.25,2.35,0,6,3.33,12,5.25" transform="translate(0 0)"/><path class="cls-3" d="M30.74,140.84S29,140.41,27.66,143c1.22.19,3-.21,3.08-2.13" transform="translate(0 0)"/><path class="cls-3" d="M20.66,143.14s-4,.36-3.65-3.53c.56,0,2.21,0,3.65,3.53" transform="translate(0 0)"/><path class="cls-3" d="M47.07,124.66c-3.11-2.34-9.79-2.42-12.9.33,1.92,1.19,7.82,3.15,12.9-.33" transform="translate(0 0)"/><path class="cls-3" d="M42.73,127.4c-4.63-.73-7.74.13-8.15,2.79-.21,1.31,5.4,1.19,8.15-2.79" transform="translate(0 0)"/><path class="cls-3" d="M47,126.3c.32,1.31-1.6,11.47-11,6.43,4.26-1.72,9.5-4.51,11-6.43" transform="translate(0 0)"/><path class="cls-3" d="M34.37,132.89a3.55,3.55,0,0,1,3.38,2.05c-2.31.45-3-.91-3.38-2.05" transform="translate(0 0)"/><path class="cls-3" d="M47.89,130.91a4.53,4.53,0,0,0-3.11,3.38c1.24.07,3-.76,3.11-3.38" transform="translate(0 0)"/><path class="cls-3" d="M63.55,117.57c-2.91-2.83-9.89-2.15-12.72.13,3,1.69,6.55,2.66,12.72-.13" transform="translate(0 0)"/><path class="cls-3" d="M59.54,119.64c-3.38-.46-7.48-.25-8.92,3.59.89.81,7.48-.29,8.92-3.59" transform="translate(0 0)"/><path class="cls-3" d="M52.27,124.84c5.54.09,6-2.62,8.71-4.9s3.63.8,2.2,2.71-5.58,5.61-10.91,2.19" transform="translate(0 0)"/><path class="cls-3" d="M54.13,127.7s-2.86.81-3.52-1.93a2.86,2.86,0,0,1,3.52,1.93" transform="translate(0 0)"/><path class="cls-3" d="M61.39,126.58a4.13,4.13,0,0,1,2.87-3c.34,1.9-.6,3.18-2.87,3" transform="translate(0 0)"/><path class="cls-3" d="M68.77,110.77c3.81-4.25,11-2.91,12,4.08,0,.8-2.22.56-5.16-1.94a10.21,10.21,0,0,0-6.87-2.14" transform="translate(0 0)"/><path class="cls-3" d="M68.06,112.23c.23-1.09,5.28-1.11,8.74,3.18-5.68.52-9.37-.2-8.74-3.18" transform="translate(0 0)"/><path class="cls-3" d="M81.12,116.88c-2.3-.91-9.17-2.42-12.94,1.43.95,1.51,10.16,2.78,12.94-1.43" transform="translate(0 0)"/><path class="cls-3" d="M70.8,107.87a3.24,3.24,0,0,0-3.73,2.42,5.38,5.38,0,0,0,3.73-2.42" transform="translate(0 0)"/><path class="cls-3" d="M77.63,107.87s2.62,1.78,2.78,3.61c.91-2.3.55-4.13-2.78-3.61" transform="translate(0 0)"/><path class="cls-3" d="M97.05,102.14c-3.81-4.24-11-2.89-12,4.09,0,.8,2.22.56,5.16-1.94a10.26,10.26,0,0,1,6.87-2.15" transform="translate(0 0)"/><path class="cls-3" d="M97.77,103.61c-.24-1.09-5.29-1.11-8.74,3.18,5.68.52,9.37-.2,8.74-3.18" transform="translate(0 0)"/><path class="cls-3" d="M84.7,108.26c2.31-.91,9.17-2.42,13,1.43-1,1.51-10.17,2.78-13-1.43" transform="translate(0 0)"/><path class="cls-3" d="M95,99.25a3.25,3.25,0,0,1,3.73,2.42A5.34,5.34,0,0,1,95,99.25" transform="translate(0 0)"/><path class="cls-3" d="M88.2,99.25s-2.63,1.78-2.78,3.61c-.92-2.3-.56-4.13,2.78-3.61" transform="translate(0 0)"/><path class="cls-3" d="M127.9,79.83c-3.81-4.25-11-2.89-12,4.09,0,.8,2.22.56,5.16-1.94a10.19,10.19,0,0,1,6.87-2.15" transform="translate(0 0)"/><path class="cls-3" d="M128.61,81.3c-.23-1.09-5.28-1.11-8.73,3.18,5.68.51,9.37-.2,8.73-3.18" transform="translate(0 0)"/><path class="cls-3" d="M115.55,86c2.3-.92,9.17-2.43,12.94,1.43-1,1.51-10.16,2.78-12.94-1.43" transform="translate(0 0)"/><path class="cls-3" d="M125.87,76.93a3.27,3.27,0,0,1,3.74,2.43c-.88.12-3.26-1.28-3.74-2.43" transform="translate(0 0)"/><path class="cls-3" d="M119,76.93s-2.62,1.79-2.77,3.62c-.92-2.3-.56-4.13,2.77-3.62" transform="translate(0 0)"/><path class="cls-3" d="M151.82,50.08c-3.81-4.25-11-2.89-12,4.09,0,.8,2.22.56,5.15-1.94a10.22,10.22,0,0,1,6.88-2.15" transform="translate(0 0)"/><path class="cls-3" d="M152.53,51.55c-.23-1.09-5.28-1.11-8.74,3.18,5.68.51,9.37-.2,8.74-3.18" transform="translate(0 0)"/><path class="cls-3" d="M139.47,56.2c2.3-.91,9.17-2.42,12.94,1.43-.95,1.51-10.16,2.78-12.94-1.43" transform="translate(0 0)"/><path class="cls-3" d="M149.79,47.19a3.24,3.24,0,0,1,3.73,2.42,5.38,5.38,0,0,1-3.73-2.42" transform="translate(0 0)"/><path class="cls-3" d="M143,47.19s-2.62,1.78-2.78,3.61c-.91-2.3-.55-4.13,2.78-3.61" transform="translate(0 0)"/><path class="cls-3" d="M114.21,99c-3.81,4.25-11,2.9-12-4.08,0-.8,2.22-.56,5.16,1.94A10.21,10.21,0,0,0,114.21,99" transform="translate(0 0)"/><path class="cls-3" d="M114.92,97.54c-.23,1.09-5.28,1.11-8.73-3.18,5.67-.52,9.37.2,8.73,3.18" transform="translate(0 0)"/><path class="cls-3" d="M101.86,92.89c2.3.91,9.17,2.42,12.94-1.43-1-1.51-10.16-2.78-12.94,1.43" transform="translate(0 0)"/><path class="cls-3" d="M112.18,101.9a3.26,3.26,0,0,0,3.74-2.42,5.38,5.38,0,0,0-3.74,2.42" transform="translate(0 0)"/><path class="cls-3" d="M105.35,101.9s-2.62-1.79-2.78-3.61c-.91,2.3-.55,4.13,2.78,3.61" transform="translate(0 0)"/><path class="cls-3" d="M140.32,72c-3.81,4.25-11,2.9-12-4.09,0-.79,2.23-.56,5.16,1.95A10.22,10.22,0,0,0,140.32,72" transform="translate(0 0)"/><path class="cls-3" d="M141,70.49c-.24,1.1-5.28,1.11-8.74-3.17,5.68-.52,9.37.19,8.74,3.17" transform="translate(0 0)"/><path class="cls-3" d="M128,65.85c2.31.91,9.17,2.42,12.95-1.43-1-1.51-10.17-2.78-12.95,1.43" transform="translate(0 0)"/><path class="cls-3" d="M138.3,74.86A3.25,3.25,0,0,0,142,72.44a5.36,5.36,0,0,0-3.73,2.42" transform="translate(0 0)"/><path class="cls-3" d="M131.47,74.86s-2.62-1.79-2.78-3.62c-.91,2.31-.56,4.13,2.78,3.62" transform="translate(0 0)"/><path class="cls-3" d="M162.09,41.34c-3.81,4.25-11,2.9-12-4.08,0-.8,2.22-.56,5.16,1.94a10.22,10.22,0,0,0,6.87,2.14" transform="translate(0 0)"/><path class="cls-3" d="M162.8,39.88c-.23,1.09-5.28,1.11-8.73-3.18,5.68-.52,9.37.2,8.73,3.18" transform="translate(0 0)"/><path class="cls-3" d="M149.74,35.23c2.3.91,9.17,2.42,12.94-1.43-1-1.51-10.16-2.78-12.94,1.43" transform="translate(0 0)"/><path class="cls-3" d="M160.06,44.24a3.26,3.26,0,0,0,3.74-2.42,5.38,5.38,0,0,0-3.74,2.42" transform="translate(0 0)"/><path class="cls-3" d="M153.23,44.24s-2.62-1.79-2.77-3.61c-.92,2.3-.56,4.13,2.77,3.61" transform="translate(0 0)"/><path class="cls-3" d="M171.63,16.45S167.33,19,164,18.93c4.72,2.48,8.23,2,7.61-2.48" transform="translate(0 0)"/><path class="cls-3" d="M167.19,21.65c-3.41-2.69-10-2.14-12.91,2.1,3.34.35,10.88,1.21,12.91-2.1" transform="translate(0 0)"/><path class="cls-3" d="M168.47,22c-1.56,1.45-4.76,5.17-10.75,2.73,1.41,4.37,10.37,5.61,10.75-2.73" transform="translate(0 0)"/><path class="cls-3" d="M171.36,20c-2,1.48-3.34,6.68-1.72,9.3.58.76,3.48-.76,2.82-3.82s-1.1-5.48-1.1-5.48" transform="translate(0 0)"/><path class="cls-3" d="M166.47,28.16a4.61,4.61,0,0,0-3.31,1.69,2.14,2.14,0,0,0,3.31-1.69" transform="translate(0 0)"/><path class="cls-3" d="M169.29,34s3.55-.25,3.45,2.78A3.22,3.22,0,0,1,169.29,34" transform="translate(0 0)"/><path class="cls-3" d="M171.5,29.39s2.19,2.23.1,3.89a2.82,2.82,0,0,1-.1-3.89" transform="translate(0 0)"/><path class="cls-3" d="M171.74,33.39c-3,.13-6.37-1-4-7.33.24,2.27,2.62,7,4,7.33" transform="translate(0 0)"/><path class="cls-3" d="M13.4,124.59s-1.65,3.08,3.16,4.77c0-1.52-2-2-3.16-4.77" transform="translate(0 0)"/><path class="cls-3" d="M16.1,125.48a8.19,8.19,0,0,1,3.63.08c-1.35,1.94-2.62,1.27-3.63-.08" transform="translate(0 0)"/><path class="cls-3" d="M126.3,55.3s3.14,1.53.22,5.72c-.85-1.25.43-2.8-.22-5.72" transform="translate(0 0)"/><path class="cls-3" d="M124.63,57.6a8.16,8.16,0,0,0-2.9,2.2c2.23.78,2.87-.51,2.9-2.2" transform="translate(0 0)"/><path class="cls-3" d="M69.12,21C71,17.64,75.61,6.86,82.29,7.58c-3.42,3.05-7.8,8.91-9.62,10.92A8.12,8.12,0,0,1,69.12,21" transform="translate(0 0)"/><path class="cls-3" d="M75.29,17.41c1-1.79,4.5-3.86,8.71-3.24,2.36.33,3.27.36,3.27.36-.44,1.63-2.63,2.79-7.15,2.31a10.88,10.88,0,0,0-4.83.57" transform="translate(0 0)"/><path class="cls-3" d="M77.18,13.5A7.81,7.81,0,0,0,81.6,9.32a6.78,6.78,0,0,1,5.59-4c-.81,4-4.62,8.82-10,8.19" transform="translate(0 0)"/><path class="cls-3" d="M83.39,13c2,.93,8.63-.5,5.38-8.39-1,3.93-3.59,7.61-5.38,8.39" transform="translate(0 0)"/><path class="cls-3" d="M98.07.85S94,4.3,90.37,4c2.33,2.21,7.14,3.37,7.7-3.13" transform="translate(0 0)"/><path class="cls-3" d="M95.42,7.75s-3,1-4.52-1.48c-.47,3.89,2.27,5.53,4.52,1.48" transform="translate(0 0)"/><path class="cls-3" d="M98.12,4.37c-2.2,2-2.7,6-2.45,7.86s3.72.67,3.29-1.78-.84-6.08-.84-6.08" transform="translate(0 0)"/><path class="cls-3" d="M95,10.79c-2.15-.55-6.38.93-7.56,5.11,2.7.09,6.51-.51,7.56-5.11" transform="translate(0 0)"/><path class="cls-3" d="M88.19,18.1s-3.68,5.83-8.92.55c1.36-1.06,5.41-1.86,8.92-.55" transform="translate(0 0)"/><path class="cls-3" d="M78.51,17.93s-4.52-1-6.17,2.75c2.37.63,5.2.67,6.17-2.75" transform="translate(0 0)"/><path class="cls-3" d="M71.67,21.23S65.2,24.1,64.91,32.59a8.35,8.35,0,0,0,6.76-11.36" transform="translate(0 0)"/><path class="cls-3" d="M74.55,22.19c2.41,4.47,2.13,7.49-1.73,9.9-1.78-.56,1.73-9.9,1.73-9.9" transform="translate(0 0)"/><path class="cls-3" d="M76.36,22.07s-1,4.79,3.26,6.16c-.64-4.19-.81-5-3.26-6.16" transform="translate(0 0)"/><path class="cls-3" d="M76.12,29.6c1.73-1.25,7.2-.61,8.25,4.75-2.17.12-5.71-1.29-8.25-4.75" transform="translate(0 0)"/><path class="cls-3" d="M80.71,21.22c-.93,1.82-.24,8.14,4.63,8.94-2.34-3.79.76-7.29-4.63-8.94" transform="translate(0 0)"/><path class="cls-3" d="M84.85,23.6c2.42,3.34,6.48,7.93,2.9,15.21-4.59-3.38,0-8.85-2.9-15.21" transform="translate(0 0)"/><path class="cls-3" d="M88.15,17.09a12.52,12.52,0,0,0,7.18,11.45c-2.7-6.09-.13-8.71-7.18-11.45" transform="translate(0 0)"/><path class="cls-3" d="M85.8,22.6s7.35,2,4.73,8.93c-3.78-3.13-1.63-5.71-4.73-8.93" transform="translate(0 0)"/><path class="cls-3" d="M90.18,33.4s-1.14,1.22-1,5.7.3,7.27-.59,8.33c4.61-5.37,6.51-8.62,1.57-14" transform="translate(0 0)"/><path class="cls-3" d="M93.35,28.88s-4.57,7.35,3.16,10a93.33,93.33,0,0,0-3.16-10" transform="translate(0 0)"/><path class="cls-3" d="M94.91,28.83s.51,7.48,5.2,10.1c-.43-5.74-.38-7.52-5.2-10.1" transform="translate(0 0)"/><path class="cls-3" d="M95.2,23.34a21.51,21.51,0,0,1,12.13,11.24C101.5,30.1,96.6,31.11,95.2,23.34" transform="translate(0 0)"/><path class="cls-3" d="M101.25,32.51s6.89,7.1,5.28,14.83c-2.92-7.39-8-7.86-5.28-14.83" transform="translate(0 0)"/><path class="cls-3" d="M100.74,40.67a12.12,12.12,0,0,0,4.18,9.59c.22-3.8-1.18-5.58-4.18-9.59" transform="translate(0 0)"/><path class="cls-3" d="M104.8,34.33s7.39,2,5.91,12c-4.18-2.88-2.57-8.24-5.91-12" transform="translate(0 0)"/><path class="cls-3" d="M97.49,39.06s-6.6,3.63-9.3,13.35c8.2-3.51,7.74-5.15,9.3-13.35" transform="translate(0 0)"/><path class="cls-3" d="M87.94,57.74s-2,4.86,6.67,14.75c-.59-7.1-1.48-10.27-6.67-14.75" transform="translate(0 0)"/><path class="cls-3" d="M96.56,48.48c.59,3.64-4.14,9.13-8,8.29-2.87-4.32,5.62-3.43,8-8.29" transform="translate(0 0)"/><path class="cls-3" d="M98.5,49.5c1.4,2,2.28,7.31-3.93,8.58-1.35-2.5,2-2.41,3.93-8.58" transform="translate(0 0)"/><path class="cls-3" d="M93.26,57.15a9,9,0,0,1,2.11,10.52c-2.15-4.4-3.42-6.34-2.11-10.52" transform="translate(0 0)"/><path class="cls-3" d="M97.74,58c1.61,5.75,7,8.79,4.14,15.76-3.21-4.09-7-11.87-4.14-15.76" transform="translate(0 0)"/><path class="cls-3" d="M95.67,67.5s-.46,8.36,7.65,11.79c-4.65-5.07-4.61-12.63-7.65-11.79" transform="translate(0 0)"/><path class="cls-3" d="M92.37,73c1.74.08,7.4,1.48,4,9-1.44-2.49-1.86-6.89-4-9" transform="translate(0 0)"/><path class="cls-3" d="M105.14,79.42c.12,1.09-1.1,4.77-5.75,7.1,3.51.33,8.58-2.71,5.75-7.1" transform="translate(0 0)"/><path class="cls-3" d="M99.05,77.39s-4.31,4.9-1.61,10.39c1.48-2.37,2.67-7.31,1.61-10.39" transform="translate(0 0)"/><path class="cls-3" d="M98.16,87.7s5.12.55,8.5-2.54a4.62,4.62,0,0,1-8.5,2.54" transform="translate(0 0)"/><path class="cls-3" d="M104.75,85.58A3.52,3.52,0,0,1,107.5,83a2.51,2.51,0,0,1-2.75,2.62" transform="translate(0 0)"/><path class="cls-3" d="M100.85,85.11a3.52,3.52,0,0,1-.65-3.74,2.51,2.51,0,0,1,.65,3.74" transform="translate(0 0)"/><path class="cls-3" d="M104.37,80a3.1,3.1,0,0,1-3.92-1c.42,2.49,2.91,3.8,3.92,1" transform="translate(0 0)"/><path class="cls-3" d="M102.65,73.7s2.38.27,2.61,4.37c-2.53-.55-2.84-3.32-2.61-4.37" transform="translate(0 0)"/><path class="cls-3" d="M99.81,39.62s-5.26,4-1.15,9.42c1.06-2.25,1.85-4.71,1.15-9.42" transform="translate(0 0)"/></g></g></g></svg>