<svg xmlns="http://www.w3.org/2000/svg" xmlns:xlink="http://www.w3.org/1999/xlink" viewBox="0 0 171.53 230.26"><defs><style>.cls-1{fill:none;}.cls-2{clip-path:url(#clip-path);}.cls-3{fill:#54a345;}</style><clipPath id="clip-path" transform="translate(0 0)"><rect class="cls-1" width="171.53" height="230.25"/></clipPath></defs><g id="Layer_2" data-name="Layer 2"><g id="Layer_1-2" data-name="Layer 1"><g class="cls-2"><path class="cls-3" d="M29.89,10.86s-3.11,12.06.55,20.84c3.47-4.11,3.2-10.79-.55-20.84" transform="translate(0 0)"/><path class="cls-3" d="M26.4,20.94s2.38,15-2.72,17.79c-2.6-3.12-1.18-11.84,2.72-17.79" transform="translate(0 0)"/><path class="cls-3" d="M25.67,3s-6.41,11.16-2,17c2.32-2.66,4.42-9.06,2-17" transform="translate(0 0)"/><path class="cls-3" d="M24.48,3.32c-.29-4.2-4.08-4.25-4.36-1.08a39.6,39.6,0,0,0,.56,12.24,83.81,83.81,0,0,1,3.8-11.16" transform="translate(0 0)"/><path class="cls-3" d="M35.64,11.47c-.45-4.36-5.55-4.81-3.91.18S35.81,23.2,35.81,23.2Z" transform="translate(0 0)"/><path class="cls-3" d="M35.47,25.24s.68,11.45.45,14.17S30.54,42.3,30.6,37.2s4.87-12,4.87-12" transform="translate(0 0)"/><path class="cls-3" d="M40.17,45.75s7.31-4.92,8.9-9.8-4-7.19-6.74-.51-2.16,10.31-2.16,10.31" transform="translate(0 0)"/><path class="cls-3" d="M47,41.16S44.59,52.21,41,58.05c-2.72-7.14.22-11.56,6.06-16.89" transform="translate(0 0)"/><path class="cls-3" d="M38.76,47.91A16.12,16.12,0,0,0,39,56.69a6.94,6.94,0,0,1-2.66,7.82c-2.33-4.82-2.84-11.56,2.38-16.6" transform="translate(0 0)"/><path class="cls-3" d="M28.78,60.09c1.65,1.3,7.15,12.24-1.64,17.62-.17-3.63.11-4.48-.51-8.67-.59-4,2.15-9,2.15-9" transform="translate(0 0)"/><path class="cls-3" d="M31.9,56.86c-.11.17-1.7,5,1.3,8.89.85,1,2.44,1,1.14-1.92a62.1,62.1,0,0,1-2.44-7" transform="translate(0 0)"/><path class="cls-3" d="M25.38,69c-3.57-5.77-6.85-5-9.57.35,1.53-1,5.75-2.69,9.57-.35" transform="translate(0 0)"/><path class="cls-3" d="M26.73,74.56c-2.54-5.36-9.49-6.43-13.79.68,4.72-1.78,9.29-2.38,13.79-.68" transform="translate(0 0)"/><path class="cls-3" d="M13.37,76.92s-7.65,4.7-5.1,18.7c6.24-6.8,2.44-14.68,5.1-18.7" transform="translate(0 0)"/><path class="cls-3" d="M16,88.65c-4.43,3-10,7.7-8.28,18.75,4-4.48,7.31-6,8.28-18.75" transform="translate(0 0)"/><path class="cls-3" d="M13.43,105.64C9.8,108,6,112.9,11.22,118.85c2.38-4.31,3.85-6.46,2.21-13.21" transform="translate(0 0)"/><path class="cls-3" d="M15.36,114.88c-3.12,3.57-4.08,9.92,3.28,12.24a23.27,23.27,0,0,1-3.28-12.24" transform="translate(0 0)"/><path class="cls-3" d="M17.73,127.69c2.65-1,7.67.35,9.41,5.6a8.73,8.73,0,0,1-9.41-5.6" transform="translate(0 0)"/><path class="cls-3" d="M17.34,119.36s9.24,16.15,24.82,14.22c-1.93-6.23-7.76-12.58-24.82-14.22" transform="translate(0 0)"/><path class="cls-3" d="M45.5,115.11c-8.84-2.78-13.26-3.51-26.63,2,10.93,2.6,19,4.64,26.63-2" transform="translate(0 0)"/><path class="cls-3" d="M56.38,126c-2.5-5.73-15.47-8.15-21-3.79,1.2,4.25,12.13,1.58,21,3.79" transform="translate(0 0)"/><path class="cls-3" d="M56.26,136.53s-3.28-7-15.64-10.43c.46,4.25,6.07,11.5,15.64,10.43" transform="translate(0 0)"/><path class="cls-3" d="M47.65,137.2c7.48,1.08,12.92-.34,19.77,11.05-9.11-.05-15.46-2.77-19.77-11.05" transform="translate(0 0)"/><path class="cls-3" d="M48.39,141.51a15.91,15.91,0,0,0-15.64-6.63c.45,2.55,9.12,6.91,15.64,6.63" transform="translate(0 0)"/><path class="cls-3" d="M50.94,144.74c-3.74-1.3-11.28-3.46-14-5.55,4.71,8.67,9.18,10.54,14,5.55" transform="translate(0 0)"/><path class="cls-3" d="M42.38,150.07c-3.17-7-10.65-13.94-17.73-16,4.19,9.8,11.5,14.56,17.73,16" transform="translate(0 0)"/><path class="cls-3" d="M57.06,132.84c-.29-1.76,10,1.53,12,10.71-4.59-3.51-10.82-5.55-12-10.71" transform="translate(0 0)"/><path class="cls-3" d="M66.24,134.43c5.32-.57,9.52-.63,12.24,5.72-4.94.85-7.6,1.93-12.24-5.72" transform="translate(0 0)"/><path class="cls-3" d="M65,134.77c-2.31-5.67-5.78-8.56-16.15-7.14,2.1,1,9.75,2.66,16.15,7.14" transform="translate(0 0)"/><path class="cls-3" d="M22.05,96.41c3.23-.82,8.48,1.75,12.39,7.61,4.21,6.22,4.16,7.25,4.16,7.25-6.06.21-9.61-3.55-11.88-7.77a46.28,46.28,0,0,0-4.67-7.09" transform="translate(0 0)"/><path class="cls-3" d="M14.69,104.33s4.27-3.24,4.63-5.76,3-.77,3.34,1.13-3.55,7.56-8,4.63" transform="translate(0 0)"/><path class="cls-3" d="M14.9,106.49s7,4.37,14.45,4c-4.27,3.44-13.63,2.62-14.45-4" transform="translate(0 0)"/><path class="cls-3" d="M27.86,79.13s5.86,6.32,1,15.58c-1.85-.61-1.95-11-1-15.58" transform="translate(0 0)"/><path class="cls-3" d="M22.71,75s10.21,13.29-1.57,20.15c.33-6.86.62-10.89.11-14.28A8.17,8.17,0,0,1,22.71,75" transform="translate(0 0)"/><path class="cls-3" d="M19.38,74.31s-7.76,7-1,13.43a16.2,16.2,0,0,0,1.76-9.29,28.49,28.49,0,0,0-.74-4.14" transform="translate(0 0)"/><path class="cls-3" d="M45.42,149.12c1.51-1.89,8.31-4.53,18.21,4-5,1.28-8.84.45-11-1.52s-7.26-2.49-7.26-2.49" transform="translate(0 0)"/><path class="cls-3" d="M48.45,152.07s-4.08-2-5.07-1.44-1.06,8.09-.3,10.2,3.25-1.36,3-3.7,2.34-5.06,2.34-5.06" transform="translate(0 0)"/><path class="cls-3" d="M53.28,151a22.53,22.53,0,0,0-6.87,21.84c2.11-4.91,7-10.88,6.8-15.34a37.35,37.35,0,0,1,.07-6.5" transform="translate(0 0)"/><path class="cls-3" d="M59.32,172.09s-1.28,10-8.38,16.54c4.15.76,16.39-5.58,8.38-16.54" transform="translate(0 0)"/><path class="cls-3" d="M50,189.16s-7.71,7.26.45,15.87A82.28,82.28,0,0,0,50,189.16" transform="translate(0 0)"/><path class="cls-3" d="M59.25,188.18c-6,1.36-7.86,6.5-6,15.79,5.36-4,8-6.72,6-15.79" transform="translate(0 0)"/><path class="cls-3" d="M63.78,201c-3.46-.6-12.16,2.34-11.26,9.29,4.69-4,10.81-5.43,11.26-9.29" transform="translate(0 0)"/><path class="cls-3" d="M62.87,181.31s-5,5.51,1.59,14.88c3.32-3.55,5.37-10.13-1.59-14.88" transform="translate(0 0)"/><path class="cls-3" d="M50.26,205.63c-4.91,3.55-4.76,11.75,2.21,21.38,1.47-3.74,2.49-8.1,0-12.18a18,18,0,0,1-2.21-9.2" transform="translate(0 0)"/><path class="cls-3" d="M53.88,224.63c4.43-4.64,11.28-4.75,18.36.79-4.59,2.9-8.72,1.25-11.61-.22s-6.75-.57-6.75-.57" transform="translate(0 0)"/><path class="cls-3" d="M74,219.76c-4.53-4.42-13.54-5.89-18.76-.28,3.74-.63,18.76.28,18.76.28" transform="translate(0 0)"/><path class="cls-3" d="M72.53,209.73c-5.92-.56-11.22-.62-17.4,3.34,4.36,1.93,12.71,2.19,17.4-3.34" transform="translate(0 0)"/><path class="cls-3" d="M75.93,195.23s-16.78,10.65-19.61,14.9c14.79-.85,21.87-9.86,19.61-14.9" transform="translate(0 0)"/><path class="cls-3" d="M80.63,196s-7.71,5-5.38,13.71c2.94-2.2,5.6-5.38,5.49-8.83s-.11-4.88-.11-4.88" transform="translate(0 0)"/><path class="cls-3" d="M80.91,196.36s-1.87,12,9.8,14.9c-1-3.63-4.53-10.93-9.8-14.9" transform="translate(0 0)"/><path class="cls-3" d="M88.79,193.41s1.7,3.29.91,9.29-.17,7.65,1.92,9c1.25-2.67,6.12-14.23-2.83-18.31" transform="translate(0 0)"/><path class="cls-3" d="M29.17,109.38c-1.9-3.81-6.56-6.62-9.25-2.35,1.52-.06,6.28.33,9.25,2.35" transform="translate(0 0)"/><path class="cls-3" d="M.81,41.86S-1.86,58.4,8.28,66.13C8.08,58.73.81,41.86.81,41.86" transform="translate(0 0)"/><path class="cls-3" d="M6.28,50.86s2.33,9.87,11.27,15c-.61-5.61-5.21-10.94-11.27-15" transform="translate(0 0)"/><path class="cls-3" d="M10.81,37.59s-5.2,9.13.33,16.47C13,50.59,13.41,42,10.81,37.59" transform="translate(0 0)"/><path class="cls-3" d="M7.81,36.26S2.41,40,3.48,50.39c2.06-.46,5-6.13,4.33-14.13" transform="translate(0 0)"/><path class="cls-3" d="M1.08,22s-3.87,12.2,3.06,19.2c1.61-3.87.74-13.54-3.06-19.2" transform="translate(0 0)"/><path class="cls-3" d="M8.08,17.45c.15-5-7.74-5.13-6.67,1.74S4.74,28,4.74,28A18.85,18.85,0,0,0,8.08,17.45" transform="translate(0 0)"/><path class="cls-3" d="M8.54,28.72c-.32-4.39-3.06-4-2.73.93S7.08,43.13,7.08,43.13s1.86-9,1.46-14.41" transform="translate(0 0)"/><path class="cls-3" d="M10.68,7.65S8.74,23,11.74,31.39C14.61,24,15,19.79,10.68,7.65" transform="translate(0 0)"/><path class="cls-3" d="M16.81,9.85C16,3,11.54,5.32,13.34,11.45s3.6,11.74,3.6,11.74Z" transform="translate(0 0)"/><path class="cls-3" d="M15.81,23.72s-3.73,7.87-3.4,12.67,4.47,4.6,4.74-2a28.62,28.62,0,0,0-1.34-10.67" transform="translate(0 0)"/><path class="cls-3" d="M18.81,46.33C18.67,39,13,39.46,13.74,45s1.34,8.2,5.87,11.27c-1.6-4.6-.73-6.53-.8-9.93" transform="translate(0 0)"/><path class="cls-3" d="M17.75,40.86s4.2,7.4,14.67,1.26c-1.74-1.33-5.8-3.2-14.67-1.26" transform="translate(0 0)"/><path class="cls-3" d="M20.35,45.66s-1.6,8.8,1.53,14c2.74-4.8,5.8-9.6-1.53-14" transform="translate(0 0)"/><path class="cls-3" d="M13.28,52.33s.8,8,7.47,10.8c-.94-4.33-2.27-7.47-7.47-10.8" transform="translate(0 0)"/><path class="cls-3" d="M9.81,61S8.55,73.47,11.08,76.8c2.8-3.13,6.33-9.07-1.27-15.8" transform="translate(0 0)"/><path class="cls-3" d="M37.36,46.44s-9.67,1.79-8.7,11.25c6.46-2,6.2-9.46,8.7-11.25" transform="translate(0 0)"/><path class="cls-3" d="M34.73,43.11s-4.22,4-12.73,2.28c4.86,6.14,7.42,5.38,12.73-2.28" transform="translate(0 0)"/><path class="cls-3" d="M20,18.61s.57,10.17-.19,14c1.53-2.88,5.62-11.32.19-14" transform="translate(0 0)"/><path class="cls-3" d="M93.77,143.76c-5.74-3.18-14-2.12-20.24.38a38,38,0,0,1-9.83,2.79s13.15,6.65,30.07-3.17" transform="translate(0 0)"/><path class="cls-3" d="M123.84,145.19c-4.68-4.68-18.58-7.25-27.87-2.72,13.37,3.25,15.78,7.71,27.87,2.72" transform="translate(0 0)"/><path class="cls-3" d="M111,149.88c-8.46-4.46-21.08-3.93-25.08,2.57,8.38,3.4,17.6,4.53,25.08-2.57" transform="translate(0 0)"/><path class="cls-3" d="M105.79,156.3c-5.29,3.78-15.94,3.1-19.72.15,9,9.59,17.22,8.39,19.72-.15" transform="translate(0 0)"/><path class="cls-3" d="M60.31,152.6c-2.8,4.6-5.89,12.61,3.4,23,2-7.94,2.41-10.13.22-13.83a43,43,0,0,1-3.62-9.14" transform="translate(0 0)"/><path class="cls-3" d="M73.45,161.21c3.25,3.33,4.76,13.67-10,19.19,3.63-8.31,5.66-17.07,10-19.19" transform="translate(0 0)"/><path class="cls-3" d="M85.31,172.84s-10,6.8-19.19,8.39c6.2,5.89,18.44,3.25,19.19-8.39" transform="translate(0 0)"/><path class="cls-3" d="M90.45,161.59s-13.67,3.32-14,12.84c6.5-3.1,14.2-6.27,14-12.84" transform="translate(0 0)"/><path class="cls-3" d="M65.22,154.18s7.85,3.33,12.16,10.43c-1.21-11-8.76-16.09-12.16-10.43" transform="translate(0 0)"/><path class="cls-3" d="M71.26,160.91s-8.69,5.66-9.67-9.75c1.81,1.29,2.5,5.59,9.67,9.75" transform="translate(0 0)"/><path class="cls-3" d="M74.34,150.63S74.28,160.72,87,161.34c-3.35-8.5-9.35-11.78-12.64-10.71" transform="translate(0 0)"/><path class="cls-3" d="M92.79,164.31s-11.48,10.95-6.57,23c0,.6-.3,3.09-.3,3.09,0,1.64,1.42,1.19,1.66-.39a19.93,19.93,0,0,1,.37-2s2.24.09,3.54-4.24,1.3-19.38,1.3-19.38" transform="translate(0 0)"/><path class="cls-3" d="M83.42,185.84c-6.12-1.66-14.73.45-17.3,14.58,6.8-5.44,16.24-10.58,17.3-14.58" transform="translate(0 0)"/><path class="cls-3" d="M109,156.15S98.15,166.88,103.67,184c5.82-6.2,9.45-13.83,5.29-27.88" transform="translate(0 0)"/><path class="cls-3" d="M101.18,163.63a12.76,12.76,0,0,0-6.43,13.29,13.71,13.71,0,0,0,6.43-13.29" transform="translate(0 0)"/><path class="cls-3" d="M95,179.72s-8.08,9.37.68,17.6c-.3-11.63-.68-17.6-.68-17.6" transform="translate(0 0)"/><path class="cls-3" d="M99.82,176.4s-4.84,4.9-2,17.45c3.78-3.4,5.74-7.63,2-17.45" transform="translate(0 0)"/><path class="cls-3" d="M101.93,191.15S92,199.36,97.34,212.9c5.27-5,8.1-9.51,4.59-21.75" transform="translate(0 0)"/><path class="cls-3" d="M84.48,226.05C86.58,211.26,96.21,213,96.21,213c-4.53,4.53-3.91,12.13-11.73,13.09" transform="translate(0 0)"/><path class="cls-3" d="M88.22,211.43c-3.29.63-12.81,4.82-13.66,13,4.6-4.47,14.34-4.64,13.66-13" transform="translate(0 0)"/><path class="cls-3" d="M82.16,207.92s-5.89,5.61-13.2,6.29c7.31,1.75,15.07.34,13.2-6.29" transform="translate(0 0)"/><path class="cls-3" d="M84.48,226.05c-3.51-2.38-7.76-2.44-11,2.1,4.19,1.24,8.9,1.3,11-2.1" transform="translate(0 0)"/><path class="cls-3" d="M102.78,222C96.66,221.12,90.6,220.39,87,227c10.67,3.26,11-3,15.75-4.93" transform="translate(0 0)"/><path class="cls-3" d="M122.1,227.52s-10.54-12.46-22.66-.28l22.66.28" transform="translate(0 0)"/><path class="cls-3" d="M144,221.9s-10.54,12.46-22.66.28L144,221.9" transform="translate(0 0)"/><path class="cls-3" d="M115.91,218.63S105.78,209,95.29,217c6.33,6.86,9.83,1.71,20.62,1.66" transform="translate(0 0)"/><path class="cls-3" d="M114.12,214.09c6-2.83,14.1-6.17,27.82,3.29-9.69,4.76-18.13,5.89-27.82-3.29" transform="translate(0 0)"/><path class="cls-3" d="M146.85,214.22s1.65,10.08,15.7,14.6c-15.21,2.15-18.63-9.59-15.7-14.6" transform="translate(0 0)"/><path class="cls-3" d="M163.52,224.46c-4,.85-18.87-2-15.75-23.45,2.27,5,7.14,18.75,15.75,23.45" transform="translate(0 0)"/><path class="cls-3" d="M162.88,216.42s3.36,7.39,1.88,13.83c5.46-7.49,5.12-14.82-1.88-13.83" transform="translate(0 0)"/><path class="cls-3" d="M166.36,215.79c8.55-5.1,4.08-14.27.28-16.09Z" transform="translate(0 0)"/><path class="cls-3" d="M142.54,188.55c-.22,12.93-12.13,18.37-23.37,21.53a211.69,211.69,0,0,0,23.37-21.53" transform="translate(0 0)"/><path class="cls-3" d="M141.36,185.76c-5,2.86-16.17,7.79-19.4,17.71,4.12-.3,17.56-12.57,19.4-17.71" transform="translate(0 0)"/><path class="cls-3" d="M111.23,189.28s9.48,7.13-.37,17.86c-.14-8.16.37-17.86.37-17.86" transform="translate(0 0)"/><path class="cls-3" d="M108.51,199.13s-4.85,4-5.07,12.86c2.8-.81,6.69-4.85,5.07-12.86" transform="translate(0 0)"/><path class="cls-3" d="M121.23,200.09s2.86,9.84-11.91,11.61c-.58-2.36,6.83-7.35,11.91-11.61" transform="translate(0 0)"/><path class="cls-3" d="M132.79,188c-5.36-2.73-11.65-2.35-17,13.06,5.07-3.47,17-13.06,17-13.06" transform="translate(0 0)"/><path class="cls-3" d="M137.68,185.91a23.75,23.75,0,0,1-7.05-14.09c-6.58,10.71-1.51,17.85,7.05,14.09" transform="translate(0 0)"/><path class="cls-3" d="M80.26,190.5s9.82-.43,7.35,13.1c-2.66-6.18-11.37-14.7-11.37-14.7Z" transform="translate(0 0)"/><path class="cls-3" d="M142.64,196.89a36.39,36.39,0,0,1-17.17,12.37c5.8.78,17.29,2.76,17.17-12.37" transform="translate(0 0)"/><path class="cls-3" d="M143.24,203.46v11.85s-7.44-.17-5.88-4,5.88-7.83,5.88-7.83" transform="translate(0 0)"/><path class="cls-3" d="M153.66,204.18c-.17,0-3.57,8.39,8.11,13.48.79.68,2.55,0-1.76-4.7a41.7,41.7,0,0,1-6.35-8.78" transform="translate(0 0)"/><path class="cls-3" d="M157.74,198.34s-4.64,9.58,6.52,15.87c1-8.22.11-12.3-6.52-15.87" transform="translate(0 0)"/><path class="cls-3" d="M153.78,191.88s-7.59,7.26-.4,15.76c1.59-3.52,4.87-9.07.4-15.76" transform="translate(0 0)"/><path class="cls-3" d="M158.42,182.87c-2.83,3.12-7,12.53,8.79,18.08-4-5.16-8.16-15.18-8.79-18.08" transform="translate(0 0)"/><path class="cls-3" d="M163.52,171.43c-.26-2.16-1.75-1.13-1.41.51s.22,3.06-.79,5.61-1,11.79,7.87,21.3c-.4-6.23,2.1-14.22-1.25-20.68-2-3.85-3.85-2.1-4.42-6.74" transform="translate(0 0)"/><path class="cls-3" d="M163.75,159.87s10.31,9.18,7.2,23.51c-1.25-4.47-4-7.19-5.72-11.9s-1.48-11.61-1.48-11.61" transform="translate(0 0)"/><path class="cls-3" d="M158.82,151.6c6.08,4.58,4.65,11.67-1.92,7s-11.17-8.79-14.62-9.41c11.9-.11,12.86-.34,16.54,2.44" transform="translate(0 0)"/><path class="cls-3" d="M155.19,147c-6.34,3-14.44,2-14.84-5.67,3.62,3.58,8.72,5.61,14.84,5.67" transform="translate(0 0)"/><path class="cls-3" d="M140.58,148.93c-1.7-8-9.58-8.38-16.32-3.79,6.34.22,13.26,1.36,16.32,3.79" transform="translate(0 0)"/><path class="cls-3" d="M55.29,162.61c.19-2-1.3-2-1.61-.3a5.72,5.72,0,0,1-.8,2.35s-5.65,3.35-5,15.44l.37,7.75s11.85-10.35,7.57-22.5L55,163.92Z" transform="translate(0 0)"/><path class="cls-3" d="M129,155.45c-6,5-10.32.16-10.48-9,2.58,3,5,6.56,10.48,9" transform="translate(0 0)"/><path class="cls-3" d="M124.83,147c5.54-.54,17.32,5.49,19.52,21.68-5.21-6.83-8.28-5.92-12.1-10.33A70.34,70.34,0,0,1,124.83,147" transform="translate(0 0)"/><path class="cls-3" d="M129.72,155.13c-2.8,6-7.47,9-4.3,20.65,6.4-7.15,8.34-11.67,5.7-23.4a5.13,5.13,0,0,1-1.4,2.75" transform="translate(0 0)"/><path class="cls-3" d="M135.05,159.27a9.8,9.8,0,0,0,4.09,6.89c4,4.52,2.69,20.27,2.69,20.27s-.22-.8-2.85-3.17c-6.3-7-6.08-13.88-4.95-16.51s1-4.57.48-8.18Z" transform="translate(0 0)"/><path class="cls-3" d="M117.23,150.18c-1.76,1.48-8,8.67.23,16.32-.12-6.23-.23-16.32-.23-16.32" transform="translate(0 0)"/><path class="cls-3" d="M118.7,156.07s6.35,1.48,5,9.35c-.91,4-1.08,5-1.08,5s-3.79,2.39-4-14.39" transform="translate(0 0)"/><path class="cls-3" d="M109.7,181.84s-8.23,4.38-3.75,16.77c2.14-5.61,5.72-9.4,3.75-16.77" transform="translate(0 0)"/><path class="cls-3" d="M110.71,175.8a12.56,12.56,0,0,0,2,9.72,25.19,25.19,0,0,1,3.9,10.63c3-9.24,1-15.38-5.88-20.35" transform="translate(0 0)"/><path class="cls-3" d="M124.44,185.31s2.29,1.33,1.39-.8l-.91-2.14s1.12-5.82-2.46-9.72-9.24-7.69-10.25-10.74c.05,7.53,3.09,19.56,8.44,20.78a6.44,6.44,0,0,1,3.79,2.62" transform="translate(0 0)"/><path class="cls-3" d="M147,182.64s2.83,8-1.91,14c6.72-1.13,8.07-8.06,1.91-14" transform="translate(0 0)"/><path class="cls-3" d="M150.89,171.25c-.42,0-11.24,5.3-.14,14.29a25.27,25.27,0,0,1,.14-14.29" transform="translate(0 0)"/><path class="cls-3" d="M139.18,150.85s17.79,2.46,12.34,18.75c-.54,1.08-3.24.66-5.93-5.33s-6.41-13.42-6.41-13.42" transform="translate(0 0)"/><path class="cls-3" d="M157.51,162.17a72.84,72.84,0,0,1-3.95,9.88c-1.8,3.18-1.68,8.93.11,14.2,5.51-4.61,9.05-13.6,3.84-24.08" transform="translate(0 0)"/><path class="cls-3" d="M115.32,129.52s-26,8.46-37.16-11.28c6.55,3.49,13,6.14,19.57,6.22s15.1.58,17.59,5.06" transform="translate(0 0)"/><path class="cls-3" d="M115.9,126.62c-3-5.56-7.55-9.71-14.18-9.21s-14,1.91-14,1.91c3.73,2.49,8,3.24,13.52,3s14.68,4.31,14.68,4.31" transform="translate(0 0)"/><path class="cls-3" d="M137.22,105.55c-4,2.65-11.53,7-14,13s-4.65,10.2-4.65,10.2,18.91-8.46,18.66-23.22" transform="translate(0 0)"/><path class="cls-3" d="M137.89,101.32c-9.21,3.23-18.17,2.57-30.2-.09,10.62,9.29,25.8,10.54,30.2.09" transform="translate(0 0)"/><path class="cls-3" d="M126.11,100.07c5.06-6,10.12-12.19,12.28-17.25,7.13,13.11-.34,18.42-12.28,17.25" transform="translate(0 0)"/><path class="cls-3" d="M127.71,110s-6.51,9.4-8.33,12.15-5.17,3.9-5.77-1.34,2.28-10.68,14.1-10.81" transform="translate(0 0)"/><path class="cls-3" d="M117.1,109c-4.5-.88-11.35-.4-13.9,6.78,1.34.67,9.8.27,13.9-6.78" transform="translate(0 0)"/><path class="cls-3" d="M102.46,113.66a17.56,17.56,0,0,0-13.56-1.61c-4.77,1.41-6.65-1.15-6.65-1.15,0,3.1,3.36,10.95,20.21,2.76" transform="translate(0 0)"/><path class="cls-3" d="M71.78,104.26c-.19-.09-2.89,11.81,11.68,13.29-5-5.84-3-9.4-11.68-13.29" transform="translate(0 0)"/><path class="cls-3" d="M75,104.32c-3.69-4.69-10.68-6.11-5.44-20.41,2.08,3.16,10.68,11,5.44,20.41" transform="translate(0 0)"/><path class="cls-3" d="M91.36,57s-17.15,4.68-19.57,23c7.78-4.61,13.37-7.17,19.57-23" transform="translate(0 0)"/><path class="cls-3" d="M94.23,56.65c-.68-3.4,27.12-6.42,36.94,11.11C115.83,56.5,100,63.3,94.23,56.65" transform="translate(0 0)"/><path class="cls-3" d="M126.49,68.14a16.76,16.76,0,0,0,11.33,13.07c.37-5.52-.91-11.79-11.33-13.07" transform="translate(0 0)"/><path class="cls-3" d="M127,73.57c-2.88-4.6-12.17-6.49-20.48-1,4.68,4.31,12.09-.68,20.48,1" transform="translate(0 0)"/><path class="cls-3" d="M122.48,65.42c-3.85,3-23.27,7.47-28.55-6.2,16,7.48,16.84,1.51,28.55,6.2" transform="translate(0 0)"/><path class="cls-3" d="M106.69,69.5s-2.72,10-13.14,6.34c4.91-4.61,5.83-6.22,13.14-6.34" transform="translate(0 0)"/><path class="cls-3" d="M120.06,89.72c-4,2.26-22,9.27-28.8-4.26,12.47,4.51,21.92-.55,28.8,4.26" transform="translate(0 0)"/><path class="cls-3" d="M113.19,100c-5.92-9.25-18.64-3.54-20.71-1.2,9.51,4,14.51-1.14,20.71,1.2" transform="translate(0 0)"/><path class="cls-3" d="M111.94,107.17c-15-11.14-24.19,2-31.69.16,9.08,5.38,20.66-1.08,31.69-.16" transform="translate(0 0)"/><path class="cls-3" d="M89.86,87c9.86,10.43-2.2,15.13-9.91,14,8.84-13.09,9.91-14,9.91-14" transform="translate(0 0)"/><path class="cls-3" d="M85.05,89.89c-5,.23-9.13,3.23-6.41,9.81,4.2-6.69,6.41-9.81,6.41-9.81" transform="translate(0 0)"/><path class="cls-3" d="M88.73,102.53l-11.56-.11s1,9.29,11.56.11" transform="translate(0 0)"/><path class="cls-3" d="M133.89,85.3c-7.82,1.7-14-2.72-19.44-.5,3.8,3.51,14.91,6.91,19.66.62" transform="translate(0 0)"/><path class="cls-3" d="M137.18,83.43c.22.26-17.17,0-17.17,0s10.25-8,17.17,0" transform="translate(0 0)"/><path class="cls-3" d="M129,77.88c-17.46-7.1-22,2.49-30.43.91C116.66,90,121.71,76.52,129,77.88" transform="translate(0 0)"/><path class="cls-3" d="M100.76,84.86c-3.58-5.31-17.64-14-28-3.43,13.07-.15,19.87.87,28,3.43" transform="translate(0 0)"/><path class="cls-3" d="M87.09,87.57s-4.53-4.82-14.9-5c2.15,5.61,6.79,9.07,14.9,5" transform="translate(0 0)"/><path class="cls-3" d="M92.47,60.88,82,75.73s22.49-2.1,10.48-14.85" transform="translate(0 0)"/><path class="cls-3" d="M131.5,89.68c-9.91-.16-13.87,4.07-17.15,8.42,5.23,2.5,15.09.94,17.15-8.42" transform="translate(0 0)"/><path class="cls-3" d="M25.9,53.89s-4.32,6-.69,12c1.69-4,3.2-6.52.69-12" transform="translate(0 0)"/></g></g></g></svg>