<svg xmlns="http://www.w3.org/2000/svg" xmlns:xlink="http://www.w3.org/1999/xlink" viewBox="0 0 219.58 95.67"><defs><style>.cls-1{fill:none;}.cls-2{clip-path:url(#clip-path);}.cls-3{fill:#03aae2;}</style><clipPath id="clip-path" transform="translate(0 0)"><rect class="cls-1" width="219.58" height="95.67"/></clipPath></defs><g id="Layer_2" data-name="Layer 2"><g id="Layer_1-2" data-name="Layer 1"><g class="cls-2"><path class="cls-3" d="M218,20.27c-2.47,2.53-6,3.18-8.54,3.47,3.44.65,8-.41,10.09-2.37,0,0-.73,5.29-8.66,5s-11.19-4.47-11.19-4.47c2.71.48,9.26-.2,18.3-1.65" transform="translate(0 0)"/><path class="cls-3" d="M219.58,19.11c-1.61.54-5.7,1.84-9.09-2-2.62-2.91-3.69-4.08-4.71-4.37,5-1.07,7.42.24,9.46,3.05,1.51,2.14,2.17,2.92,4.34,3.31" transform="translate(0 0)"/><path class="cls-3" d="M213.88,12.2c-1.43-4.83-6.14-7.06-10.06-1.2,2.33-1.11,6.39-1.07,10.06,1.2" transform="translate(0 0)"/><path class="cls-3" d="M208.17,6.49c-1.7-2.88-4.39-2.87-7.42,3.35,1.7-.36,3.31-.63,4.57-2a3.69,3.69,0,0,1,2.85-1.3" transform="translate(0 0)"/><path class="cls-3" d="M205.32,3.8c-2-6.28-5.07-3.65-6.21-.16,1.27-.83,3.68-.59,3.62,1.49a2.16,2.16,0,0,1,2.59-1.33" transform="translate(0 0)"/><path class="cls-3" d="M193.11,11.34l.1-.07c2.07-1.64,3.29-7,8.22-6.89-1.27,8.48-3.9,9.1-8.32,7" transform="translate(0 0)"/><path class="cls-3" d="M198.21,4.63a4.81,4.81,0,0,0-4.48-3.49c-1.3,2.69-1.7,4.73.28,4.45s2.66-1,4.2-1" transform="translate(0 0)"/><path class="cls-3" d="M196,6.3a9,9,0,0,0-8.6,2.85,11.5,11.5,0,0,0,5-1.47,12.91,12.91,0,0,1-6.86,3.41A9.28,9.28,0,0,0,196,6.3" transform="translate(0 0)"/><path class="cls-3" d="M204.46,11.87c-2.49,1-5.13,7.37,7.48,7.71a18.1,18.1,0,0,1-7.48-7.71" transform="translate(0 0)"/><path class="cls-3" d="M208.52,20c-4.06-.09-4.57-.82-6.25-2.39s-4.13-1-6.25.86c3.69,2,6.53,3.88,12.5,1.53" transform="translate(0 0)"/><path class="cls-3" d="M201.89,10c-1.14,1.7-2.37,2.11-4,2.67a3.16,3.16,0,0,0-2.27,3.07c3.38.75,7.42-1.16,6.31-5.74" transform="translate(0 0)"/><path class="cls-3" d="M193.48,12.52c-4.17-.32-13.88-.32-20.71,4.6,13.39,3,17.68-.65,20.71-4.6" transform="translate(0 0)"/><path class="cls-3" d="M179.85,19.76c4.14.51,10.48-1.43,13.85-5.14.71-.68,2,3.92-2.66,5.44s-10,.65-11.19-.3" transform="translate(0 0)"/><path class="cls-3" d="M185.23,22.38c-8,.95-12.8-8-22.63-2.8,11.44.26,10.14,12,22.63,2.8" transform="translate(0 0)"/><path class="cls-3" d="M180.9,25.9c-5.75,3.88-11.32-4-16.76,11.32,14.84-4,16.51-9.28,16.76-11.32" transform="translate(0 0)"/><path class="cls-3" d="M183.13,25c-1.89,1.76-5.23,7.22-3.28,12.26,1.78-1.6,5.29-6.35,3.28-12.26" transform="translate(0 0)"/><path class="cls-3" d="M186.21,23c-2.1,2-1.43,7.21.92,10.57,2.11,3,1.9,8.7.19,12.47,6.3-5.57,7.65-9.9,5.42-14.62-3.08-5.48-4.46-3.76-6.53-8.42" transform="translate(0 0)"/><path class="cls-3" d="M199.73,25.26a14.45,14.45,0,0,0-13-3.62c3.34,5.44,5.44,5.81,13,3.62" transform="translate(0 0)"/><path class="cls-3" d="M201.47,27.45c-4.25-1-11.24,1.53-5.89,9.11a20.18,20.18,0,0,1,5.89-9.11" transform="translate(0 0)"/><path class="cls-3" d="M206.87,26.79c-2.27-.54-5.27-1.52-6.76-3.46,1.28,6.3,6.76,3.46,6.76,3.46" transform="translate(0 0)"/><path class="cls-3" d="M198.83,21.33A5.12,5.12,0,0,1,195,18.24c-.83,3.74,1.74,3.67,3.86,3.09" transform="translate(0 0)"/><path class="cls-3" d="M176.94,33.13c-2.53,2.81-4.48,6.85-2.59,10.65,2.2-1.2,4.51-6.71,2.59-10.65" transform="translate(0 0)"/><path class="cls-3" d="M175.62,43.57c-6.81,4.26-7.31,9.27-7.74,11.9,3.59,0,9-5.31,7.74-11.9" transform="translate(0 0)"/><path class="cls-3" d="M185.68,36.2c-.37,2.33,1.07,2.91,0,7.58A18.69,18.69,0,0,1,174.6,56.16c1-1.39,1-4.59,1.64-8.43,2.14-10.19,5.15-11.09,6.35-11.17,1.4-.09,2.06-1,2.59-2.39.46-1.23,1.58-1,1.29-.19s-.79,2.22-.79,2.22" transform="translate(0 0)"/><path class="cls-3" d="M150.13,60.5c.33-2-1-2.56,0-6.68a16.66,16.66,0,0,1,10.09-10.9c-.86,1.22-.91,4-1.49,7.43-1.95,9-4.69,9.76-5.79,9.84-1.27.08-1.87.83-2.36,2.1-.42,1.08-1.44.84-1.17.16s.72-2,.72-2" transform="translate(0 0)"/><path class="cls-3" d="M98.06,52.59c-1.91-.45-2.48.75-6.3-.45a15.79,15.79,0,0,1-9.61-10.26c1.09.9,3.76,1.14,6.91,1.91C97.4,46.23,98,48.88,98,49.92c0,1.2.67,1.82,1.83,2.37,1,.46.7,1.41.08,1.11s-1.8-.81-1.8-.81" transform="translate(0 0)"/><path class="cls-3" d="M173.59,57c-5.71-1.24-10.37,1.31-14.64-1.54,1.54,6.18,8.48,5.49,14.64,1.54" transform="translate(0 0)"/><path class="cls-3" d="M162.66,60c-6.49,2-12.86,3.71-16.88,12.86-3.34,8.6-3.16,10.39-3.16,10.39,3.28-3.15,7.11-9,10-14.22s10-9,10-9" transform="translate(0 0)"/><path class="cls-3" d="M149.65,76.21A6.29,6.29,0,0,1,154,79.54a6.07,6.07,0,0,0,3,2.5c-1.35-6.29-4.78-7.57-7.35-5.83" transform="translate(0 0)"/><path class="cls-3" d="M157,77.23c2.59,1.76,3.52,5.31,1.85,7.63-1.11-1-.64-2.87-1.34-4.44a6.94,6.94,0,0,1-.51-3.19" transform="translate(0 0)"/><path class="cls-3" d="M158.13,85.34a5.24,5.24,0,0,1-2.37-2.65,3.65,3.65,0,0,0-2.32-2.13c.09,4.29,2.09,5.71,4.69,4.78" transform="translate(0 0)"/><path class="cls-3" d="M153.61,83.08c-1.62-4.33-1.86-5.92-4-5.13s-2.77,2.65-3.4,2.94c4.12-.31,4.57.11,5.76,1.47s1.6.72,1.6.72" transform="translate(0 0)"/><path class="cls-3" d="M126.73,93.33c2.61-4.45,5.77-4.54,7.54-5.45s.31-2.87-2.7-2.25a6.6,6.6,0,0,0-4.84,7.7" transform="translate(0 0)"/><path class="cls-3" d="M138.17,88.66c-.2,2.21-3.65,7.2-13.26,6.64,1.71-1.4,3.31-1.91,5.39-4.14s4.9-2.67,7.87-2.5" transform="translate(0 0)"/><path class="cls-3" d="M126.35,87.16c-3.41,1.94-3.94,2.9-4.95,4.71s-1.34,2.92-2.5,3.8c4.22-.1,6.72.66,7.45-8.51" transform="translate(0 0)"/><path class="cls-3" d="M122.43,88.17c-7.6.45-6.11,6-8.7,7.18,3.85.79,5.07-.17,8.7-7.18" transform="translate(0 0)"/><path class="cls-3" d="M138.44,78.24c-2,2.94-4,3.07-6.14,2.64,3.4,3.34,7-.19,6.14-2.64" transform="translate(0 0)"/><path class="cls-3" d="M142.86,74.12c-.24,6.12-.48,15.68-7.43,13.43,1.41-2.87,3.83-11.28,7.43-13.43" transform="translate(0 0)"/><path class="cls-3" d="M149.4,63.69c-3.5.82-6.43,6.1-5.4,10.43a94.07,94.07,0,0,1,5.4-10.43" transform="translate(0 0)"/><path class="cls-3" d="M158.56,57c-.72,5.49-4.87,5.65-6.48,4.53,1.51-2,5.62-2.29,6.48-4.53" transform="translate(0 0)"/><path class="cls-3" d="M173.59,35.52c-3.45.61-8.31,6.85-6,14.23,2.31-2,4.71-4.12,4.54-8a10.77,10.77,0,0,1,1.47-6.23" transform="translate(0 0)"/><path class="cls-3" d="M165.77,37.76c-2.14,4.24-7,5.31-4.78,12.32,4.74-3.21,6.31-8.61,4.78-12.32" transform="translate(0 0)"/><path class="cls-3" d="M166.06,46.4c-1.57,2.24-3.42,3.48-5.63,5.12s-2.66,2.85,2,3.71a43.48,43.48,0,0,1,4.74.93,7.91,7.91,0,0,1-1.07-6.64,4.48,4.48,0,0,0,0-3.12" transform="translate(0 0)"/><path class="cls-3" d="M152.64,47.67c-6.37,2.54-8.85,6.62-8.84,10.7s.55,6.67-.5,9.15c3.39-2.23,4.7-7.7,5.07-11.36s4.27-8.49,4.27-8.49" transform="translate(0 0)"/><path class="cls-3" d="M143.79,49.75s1.43.14,3-3.35a25.58,25.58,0,0,1,5.81-8.65s.72,12.6-8.85,12" transform="translate(0 0)"/><path class="cls-3" d="M162.66,36.56c-3.83.95-8.31,2.6-10,7,5.87-1,8.93-2,10-7" transform="translate(0 0)"/><path class="cls-3" d="M167.7,28.42c-4.86,1.15-9,1.6-13.22,9.08,6.09-2,11.31-4,13.22-9.08" transform="translate(0 0)"/><path class="cls-3" d="M162.81,27.7c-3,2.62-10.51,1.66-12.77-1.8,8.33-2.49,8.66,1.43,12.77,1.8" transform="translate(0 0)"/><path class="cls-3" d="M171.65,24.23C168.54,24.47,167,20.07,159,23c4.74,4.2,8.33,4.66,12.68,1.28" transform="translate(0 0)"/><path class="cls-3" d="M162,17.94c-4.65,2.54-8-1.92-13.67,6.44,6-2.54,12.07.27,13.67-6.44" transform="translate(0 0)"/><path class="cls-3" d="M151.28,19.1c-5.64-.73-5.55,2.08-10.92.42,4.82,3.92,9,3.68,10.92-.42" transform="translate(0 0)"/><path class="cls-3" d="M143.58,22.54c-2.86,2.27-7.6,4-12.19.33,4.89-2.87,7.46-2.17,12.19-.33" transform="translate(0 0)"/><path class="cls-3" d="M147,23.56c-6.33.09-3.11,2.32-10.1,3.29,2.65,1.78,4.7,2.78,4.85,5.46,1-6,4.6-4.33,5.25-8.75" transform="translate(0 0)"/><path class="cls-3" d="M154.33,31.56c-2.15-3.62-5.28-3.89-8.51-3.32,3.23,2.63,3.86,5.07,8.51,3.32" transform="translate(0 0)"/><path class="cls-3" d="M157.28,31.09c-1-1.7-6.12,3.75-3.86,6.66,1.21-4.41,4.71-4.42,3.86-6.66" transform="translate(0 0)"/><path class="cls-3" d="M149.7,32.15c-.89,2.72-4.88,2.75-4.91,8.41a36,36,0,0,1-.47,6.77c4.46-5.84,8.1-12.3,5.38-15.18" transform="translate(0 0)"/><path class="cls-3" d="M147,31c-3,1.35-7.12,2.66-5.23,9.09,4-5.5,6.39-5.62,5.23-9.09" transform="translate(0 0)"/><path class="cls-3" d="M143.58,39.54c-3,3.1-5.1,8.44-.74,13.17-.22-7.08,2.72-9.68.74-13.17" transform="translate(0 0)"/><path class="cls-3" d="M140.48,50.54c-1.56-1.67-1.08-2.26-1.24-4.42s-1.34-2.45-1.34-2.45c-.38,3.93-1.88,6.68,2.58,6.87" transform="translate(0 0)"/><path class="cls-3" d="M138.79,43.5c5.26-9.69-5.71-18.74-9.59-20.53,0,6,9.53,10.43,9.59,20.53" transform="translate(0 0)"/><path class="cls-3" d="M130,28.42c-6.76,1.66-11.42.75-13.52-6.5,7.38.38,11.95,3.23,13.52,6.5" transform="translate(0 0)"/><path class="cls-3" d="M131.72,30.42c4.09,3.84,8.33,15.35,2.27,22.29,1.4-9.79-3.3-15.57-2.27-22.29" transform="translate(0 0)"/><path class="cls-3" d="M133.49,46.12c-2.1-12.45-7.91-19-17.44-15.35,10.39,6.66,13,14.36,17.44,15.35" transform="translate(0 0)"/><path class="cls-3" d="M122,36.56c-4.37-2.36-7.59-4.74-8.58-6.78,0,6.16,2.31,8.55,4.62,9,2,.4,5.66-1.31,4-2.23" transform="translate(0 0)"/><path class="cls-3" d="M126.81,42.92c-1.61-2.91-3.58-3.35-6.51-2.85,2.39,2,2.39,3.18,6.51,2.85" transform="translate(0 0)"/><path class="cls-3" d="M128.55,43.76c-11.63.88-15.26-9.08-25.44-4,7.5,1.11,16.45,13,25.44,4" transform="translate(0 0)"/><path class="cls-3" d="M111.15,43.94a8,8,0,0,1-6.47-2.8c-1.57,4.92,2.84,5.85,6.47,2.8" transform="translate(0 0)"/><path class="cls-3" d="M130.61,47.33c3.92-4.06-8.66.48-15.22,7.12,7.3-3,13.31-5.15,15.22-7.12" transform="translate(0 0)"/><path class="cls-3" d="M118.69,54.78c0,5.26-1.65,16.08,3.59,19,1.09-9.73,6.35-12.29-3.59-19" transform="translate(0 0)"/><path class="cls-3" d="M134.56,73.33c-3.33.79-8.9,1.65-11.7.58,2.31,4.12,6.47,4.7,11.7-.58" transform="translate(0 0)"/><path class="cls-3" d="M141.49,74.12c-7.79-2.89-5,3.75-14,3.87,4.79,5.65,12.17-1.52,14-3.87" transform="translate(0 0)"/><path class="cls-3" d="M134.15,72.18c-3.13-1.07-3.24-3.42-3.33-5.86-2.11,5.34-6.52,4.79-7.18,6.77,3.75-1,10.51-.91,10.51-.91" transform="translate(0 0)"/><path class="cls-3" d="M132.71,49.59c-3.26,4.24-7.85,8.53-2.85,17.39-.57-12.14,4-9,2.85-17.39" transform="translate(0 0)"/><path class="cls-3" d="M129.2,49.48c-1.13-.7-7.07,3.77-4.07,10.13.53-4.64,6.22-8.89,4.07-10.13" transform="translate(0 0)"/><path class="cls-3" d="M123.56,52.49a4,4,0,0,0,0,4.7c-3.51-1-2.19-4.26,0-4.7" transform="translate(0 0)"/><path class="cls-3" d="M125.31,60.78a12.17,12.17,0,0,1-1.67,10.54c6.58-3.15,4.91-8.8,1.67-10.54" transform="translate(0 0)"/><path class="cls-3" d="M121.4,48a8.1,8.1,0,0,1-5.35-.31c2.41,4.12,4.34,1.63,5.35.31" transform="translate(0 0)"/><path class="cls-3" d="M116.05,53.17c-.22-6.35-10.93-9.89-14.29-1.65,4,1,9.6-4.59,14.29,1.65" transform="translate(0 0)"/><path class="cls-3" d="M114.88,52.83c-4.72-2.35-11.88-1.06-15.39,2.76,7.07.23,11.38,1,15.39-2.76" transform="translate(0 0)"/><path class="cls-3" d="M100.33,52c.29-3.34,5.08-4.46,2.78-12.25-2.72,2-5.89,9.17-2.78,12.25" transform="translate(0 0)"/><path class="cls-3" d="M135.92,19.91c-5-2.73-8,.57-12-2.93,1.56,6.22,7.58,5.4,12,2.93" transform="translate(0 0)"/><path class="cls-3" d="M126.85,23.56c-5.35-5.84-9.23-8.6-19-6.95,2.07,3.24,13.87,1.93,19,7" transform="translate(0 0)"/><path class="cls-3" d="M116.23,23.56c-10-7.2-20.55-6.8-26.07,3.49,7.38-3.89,19.92-4,26.07-3.49" transform="translate(0 0)"/><path class="cls-3" d="M100.43,26.21c-5.69,1.45-9.14.29-14.55,5.07,6.93,1.28,12.86-.9,14.55-5.07" transform="translate(0 0)"/><path class="cls-3" d="M99.65,28.93c9.85,3.42,13.44,1.36,17.39-3.05-7.58-.82-13.48,0-17.39,3.05" transform="translate(0 0)"/><path class="cls-3" d="M102.24,30a6.15,6.15,0,0,0-4.76,9.11c2-4.81,5-5.53,4.76-9.11" transform="translate(0 0)"/><path class="cls-3" d="M114.12,36.7C105.91,38.45,103,34.3,102.41,33c7.44-1.79,8.75-1.79,11.71,3.73" transform="translate(0 0)"/><path class="cls-3" d="M103.94,36c-3.77.62-10.87,4.87-6.09,11-.4-4.7,3-8.16,6.09-11" transform="translate(0 0)"/><path class="cls-3" d="M87.47,39.89c-1.58,0-2,1.27,0,1.54s3.21,2.82,6.36,1.54c1.46-.8,2.23-3,1.4-4.12s-3.23-.65-4.38.27a6,6,0,0,1-3.38.77" transform="translate(0 0)"/><path class="cls-3" d="M96.25,33.32c-5.4-.46-10.12-1-17.6,3.53,7.36,1.39,13.5,3.74,17.6-3.53" transform="translate(0 0)"/><path class="cls-3" d="M84.53,39.12c-5.88-.54-8.91-2.18-13.64,3.32,7.58-1,10.08,1,13.64-3.32" transform="translate(0 0)"/><path class="cls-3" d="M82.46,44.58c-4.24-3.43-10.36,1.21-22.17.25C69.93,50,74.39,49,78.78,46.4a10.68,10.68,0,0,1,3.68-1.82" transform="translate(0 0)"/><path class="cls-3" d="M65.3,48.29c-6.5-2.91-17.57.49-23.87-.9,6.37,3.37,8.07,3.74,13,2.41A42.61,42.61,0,0,1,65.3,48.29" transform="translate(0 0)"/><path class="cls-3" d="M68.45,49.34c-13.73.62-13.36,3.19-23,1.54C50.58,56.3,64,55,68.45,49.34" transform="translate(0 0)"/><path class="cls-3" d="M45.83,53.06c-5.44-6.66-9-5.75-13.86-4.27,5.27,5.34,6.09,4.65,13.86,4.27" transform="translate(0 0)"/><path class="cls-3" d="M33.2,51.42a5.94,5.94,0,0,0-9.94-.76c2.33,0,8.46,3.82,9.94.76" transform="translate(0 0)"/><path class="cls-3" d="M32,47.73c-3.06-4.39-9.66-3.29-12.31,2.42,5.18-2.87,7.45-4.08,12.31-2.42" transform="translate(0 0)"/><path class="cls-3" d="M23.26,44.57c-7.64-3-12.53.94-13.54,2.68,4.29-.57,8.14,1.26,8.49,2.08a9.2,9.2,0,0,1,5.05-4.76" transform="translate(0 0)"/><path class="cls-3" d="M18.24,50.69C11,47.15,4.63,46.2,1,52.61c5.84-3.44,11.59,1,17.24-1.92" transform="translate(0 0)"/><path class="cls-3" d="M11.33,44.12c-6.1-1.67-12,.92-11.28,8,3.16-6.66,8.37-3.54,11.28-8" transform="translate(0 0)"/></g></g></g></svg>