<?xml version="1.0" encoding="UTF-8"?>
<svg id="Layer_1" xmlns="http://www.w3.org/2000/svg" xmlns:xlink="http://www.w3.org/1999/xlink" viewBox="0 0 44.46 38.15">
  <defs>
    <style>
      .cls-1 {
        fill: none;
      }

      .cls-2 {
        fill: #afd6f2;
      }

      .cls-3 {
        fill: #03aae2;
      }

      .cls-4 {
        clip-path: url(#clippath);
      }
    </style>
    <clipPath id="clippath">
      <rect class="cls-1" x="0" width="44.46" height="38.15"/>
    </clipPath>
  </defs>
  <g class="cls-4">
    <path class="cls-3" d="M27.83,24.27c0,7.66-6.21,13.88-13.88,13.88S.72,32.15.08,24.51C-.92,12.86,7.94,3.1,18.69,0c-3.66,2.22-6.22,6.07-6.65,10.55.63-.09,1.26-.15,1.91-.15,7.66,0,13.88,6.21,13.88,13.88"/>
    <path class="cls-2" d="M44.46,30.6c0,4.17-3.38,7.55-7.55,7.55s-7.2-3.26-7.55-7.42c-.54-6.34,4.28-11.65,10.13-13.34-1.99,1.2-3.38,3.3-3.62,5.74.34-.05.69-.08,1.04-.08,4.17,0,7.55,3.38,7.55,7.55"/>
  </g>
</svg>